<?xml version="1.0" encoding="UTF-8" standalone="no"?>
<!-- Created with Inkscape (http://www.inkscape.org/) -->

<svg
   xmlns:dc="http://purl.org/dc/elements/1.1/"
   xmlns:cc="http://creativecommons.org/ns#"
   xmlns:rdf="http://www.w3.org/1999/02/22-rdf-syntax-ns#"
   xmlns:svg="http://www.w3.org/2000/svg"
   xmlns="http://www.w3.org/2000/svg"
   xmlns:xlink="http://www.w3.org/1999/xlink"
   xmlns:sodipodi="http://sodipodi.sourceforge.net/DTD/sodipodi-0.dtd"
   xmlns:inkscape="http://www.inkscape.org/namespaces/inkscape"
   width="1024px"
   height="768px"
   id="svg2816"
   version="1.1"
   inkscape:version="0.46+devel r22636 custom"
   sodipodi:docname="intro.svg">
  <sodipodi:namedview
     id="base"
     pagecolor="#ffffff"
     bordercolor="#666666"
     borderopacity="1.0"
     inkscape:pageopacity="0.0"
     inkscape:pageshadow="2"
     inkscape:zoom="1"
     inkscape:cx="486.38348"
     inkscape:cy="450.9929"
     inkscape:current-layer="layer2"
     inkscape:document-units="px"
     showgrid="true"
     inkscape:window-width="1359"
     inkscape:window-height="1180"
     inkscape:window-x="0"
     inkscape:window-y="16"
     inkscape:window-maximized="0"
     objecttolerance="10000">
    <inkscape:grid
       snapvisiblegridlinesonly="true"
       enabled="true"
       visible="true"
       empspacing="5"
       id="grid2826"
       type="xygrid" />
  </sodipodi:namedview>
  <defs
     id="defs2818">
    <inkscape:perspective
       id="perspective2824"
       inkscape:persp3d-origin="512 : 256 : 1"
       inkscape:vp_z="1024 : 384 : 1"
       inkscape:vp_y="0 : 1000 : 0"
       inkscape:vp_x="0 : 384 : 1"
       sodipodi:type="inkscape:persp3d" />
    <inkscape:perspective
       sodipodi:type="inkscape:persp3d"
       inkscape:vp_x="0 : 0.5 : 1"
       inkscape:vp_y="0 : 1000 : 0"
       inkscape:vp_z="1 : 0.5 : 1"
       inkscape:persp3d-origin="0.5 : 0.33333333 : 1"
       id="perspective2881" />
    <inkscape:perspective
       sodipodi:type="inkscape:persp3d"
       inkscape:vp_x="0 : 0.5 : 1"
       inkscape:vp_y="0 : 1000 : 0"
       inkscape:vp_z="1 : 0.5 : 1"
       inkscape:persp3d-origin="0.5 : 0.33333333 : 1"
       id="perspective3123" />
    <inkscape:perspective
       sodipodi:type="inkscape:persp3d"
       inkscape:vp_x="0 : 0.5 : 1"
       inkscape:vp_y="0 : 1000 : 0"
       inkscape:vp_z="1 : 0.5 : 1"
       inkscape:persp3d-origin="0.5 : 0.33333333 : 1"
       id="perspective3194" />
    <inkscape:perspective
       sodipodi:type="inkscape:persp3d"
       inkscape:vp_x="0 : 0.5 : 1"
       inkscape:vp_y="0 : 1000 : 0"
       inkscape:vp_z="1 : 0.5 : 1"
       inkscape:persp3d-origin="0.5 : 0.33333333 : 1"
       id="perspective3255" />
    <inkscape:perspective
       sodipodi:type="inkscape:persp3d"
       inkscape:vp_x="0 : 0.5 : 1"
       inkscape:vp_y="0 : 1000 : 0"
       inkscape:vp_z="1 : 0.5 : 1"
       inkscape:persp3d-origin="0.5 : 0.33333333 : 1"
       id="perspective3347" />
    <clipPath
       clipPathUnits="userSpaceOnUse"
       id="clipPath3462">
      <path
         d="M 0,1292.29 0,0 l 5142.45,0 0,1292.29 -5142.45,0 z"
         id="path3464" />
    </clipPath>
    <inkscape:perspective
       sodipodi:type="inkscape:persp3d"
       inkscape:vp_x="0 : 0.5 : 1"
       inkscape:vp_y="0 : 1000 : 0"
       inkscape:vp_z="1 : 0.5 : 1"
       inkscape:persp3d-origin="0.5 : 0.33333333 : 1"
       id="perspective3452" />
    <clipPath
       clipPathUnits="userSpaceOnUse"
       id="clipPath3566">
      <path
         d="M 0,1292.29 0,0 l 5142.45,0 0,1292.29 -5142.45,0 z"
         id="path3568" />
    </clipPath>
    <inkscape:perspective
       sodipodi:type="inkscape:persp3d"
       inkscape:vp_x="0 : 0.5 : 1"
       inkscape:vp_y="0 : 1000 : 0"
       inkscape:vp_z="1 : 0.5 : 1"
       inkscape:persp3d-origin="0.5 : 0.33333333 : 1"
       id="perspective3556" />
    <inkscape:perspective
       id="perspective5081"
       inkscape:persp3d-origin="0.5 : 0.33333333 : 1"
       inkscape:vp_z="1 : 0.5 : 1"
       inkscape:vp_y="0 : 1000 : 0"
       inkscape:vp_x="0 : 0.5 : 1"
       sodipodi:type="inkscape:persp3d" />
  </defs>
  <metadata
     id="metadata2821">
    <rdf:RDF>
      <cc:Work
         rdf:about="">
        <dc:format>image/svg+xml</dc:format>
        <dc:type
           rdf:resource="http://purl.org/dc/dcmitype/StillImage" />
        <dc:title />
      </cc:Work>
    </rdf:RDF>
  </metadata>
  <g
     style="display:inline;opacity:0.80357143"
     inkscape:groupmode="layer"
     inkscape:label="Logo"
     id="layer1">
    <flowRoot
       style="font-size:40px;font-style:normal;font-weight:normal;fill:#000000;fill-opacity:1;stroke:none;font-family:Mentone;-inkscape-font-specification:Mentone"
       id="flowRoot2888"
       xml:space="preserve"><flowRegion
         id="flowRegion2890"><rect
           y="67"
           x="193"
           height="168"
           width="653"
           id="rect2892" /></flowRegion><flowPara
         id="flowPara2894" /></flowRoot>  </g>
  <g
     style="display:inline"
     inkscape:label="Text"
     id="layer2"
     inkscape:groupmode="layer">
    <text
       id="text2896"
       y="98"
       x="975.22052"
       style="font-size:40px;font-style:normal;font-weight:normal;text-align:end;text-anchor:end;fill:#000000;fill-opacity:1;stroke:none;font-family:Mentone;-inkscape-font-specification:Mentone"
       xml:space="preserve"><tspan
         id="tspan2908"
         style="font-size:64px;text-align:end;text-anchor:end"
         y="98"
         x="975.22052"
         sodipodi:role="line">Behaviour Driven Development</tspan><tspan
         id="tspan2906"
         style="font-size:36px;text-align:end;text-anchor:end"
         y="178"
         x="975.22052"
         sodipodi:role="line" /></text>
    <text
       id="text2900"
       y="218"
       x="678"
       style="font-size:40px;font-style:normal;font-weight:normal;fill:#000000;fill-opacity:1;stroke:none;font-family:Mentone;-inkscape-font-specification:Mentone"
       xml:space="preserve"><tspan
         y="218"
         x="678"
         id="tspan2902"
         sodipodi:role="line" /></text>
    <text
       id="text2928"
       y="158"
       x="974.95917"
       style="font-size:40px;font-style:normal;font-weight:normal;text-align:end;text-anchor:end;fill:#000000;fill-opacity:1;stroke:none;font-family:Mentone;-inkscape-font-specification:Mentone"
       xml:space="preserve"><tspan
         y="158"
         x="974.95917"
         id="tspan2930"
         sodipodi:role="line">Marcus Ahnve</tspan><tspan
         id="tspan2932"
         y="208"
         x="974.95917"
         sodipodi:role="line" /></text>
    <flowRoot
       style="fill:black;stroke:none;stroke-opacity:1;stroke-width:1px;stroke-linejoin:miter;stroke-linecap:butt;fill-opacity:1;font-family:Mentone;font-style:normal;font-weight:normal;font-size:40px;-inkscape-font-specification:Mentone"
       id="flowRoot3200"
       xml:space="preserve"><flowRegion
         id="flowRegion3202"><rect
           y="230"
           x="526"
           height="80"
           width="215"
           id="rect3204" /></flowRegion><flowPara
         id="flowPara3206" /></flowRoot>    <g
       id="g3558"
       inkscape:label="ink_ext_XXXXXX"
       transform="matrix(0.70147232,0,0,-0.70147232,624.99502,761.78176)">
      <g
         id="g3560"
         transform="scale(0.1,0.1)">
        <g
           id="g3562">
          <g
             id="g3564"
             clip-path="url(#clipPath3566)">
            <path
               d="m 1277.57,736.91 c 29.27,144.414 7.96,282.41 -72.03,387.72 -183.18,241.45 -605.071,219.55 -942.185,-49.11 -46.132,-36.7 -87.968,-76.11 -125.812,-117.5 C 314.859,794.332 648.293,620.023 1277.57,736.91"
               style="fill:#f46e23;fill-opacity:1;fill-rule:nonzero;stroke:none"
               id="path3570" />
            <path
               d="M 935.496,216.609 C 1081.85,333.336 1187.93,477.379 1246.39,622.75 962.613,579.078 396.719,466.391 0,159.18 186.73,-73.1602 602.348,-48.75 935.496,216.609"
               style="fill:#f46e23;fill-opacity:1;fill-rule:nonzero;stroke:none"
               id="path3572" />
            <path
               d="m 1565.67,18.4688 -259.3,617.7972 169.05,30.613 c 54.61,-146.16 110.56,-293.641 164.06,-470.41 l 2.46,0 c 57.14,176.769 115.69,324.25 174.17,470.41 l 144.87,-26.668 -277.13,-621.7422 -118.18,0"
               style="fill:#0e0e0d;fill-opacity:1;fill-rule:nonzero;stroke:none"
               id="path3574" />
            <path
               d="m 2252.08,356.715 c -82.64,-25.43 -124.58,-73.766 -124.58,-146.305 0,-55.781 35.51,-94.051 76.21,-94.051 67.38,0 155.04,83.86 142.41,270.852 l -94.04,-30.496 z M 2305.32,79.6406 C 2258.41,42.7188 2201.23,3.37109 2142.73,3.37109 c -99.16,0 -181.75,76.26951 -181.75,193.09791 0,120.761 87.66,189.543 235.13,231.359 l 150.01,44.551 c -8.92,58.476 -61.04,95.391 -115.74,95.391 -72.4,0 -123.33,-26.719 -167.75,-64.895 l -54.65,80.098 c 78.83,64.797 156.34,86.367 244.1,86.367 116.86,0 260.53,-38.125 260.53,-236.328 l 0,-259.364 c 0,-50.949 6.38,-110.6988 26.72,-155.1792 l -179.22,0 c -12.68,21.7929 -16.48,58.6406 -16.48,92.9222 l -38.31,-31.7504"
               style="fill:#0e0e0d;fill-opacity:1;fill-rule:nonzero;stroke:none"
               id="path3576" />
            <path
               d="m 2619.38,18.4688 0,904.3902 169.08,29.891 0,-934.2812 -169.08,0"
               style="fill:#0e0e0d;fill-opacity:1;fill-rule:nonzero;stroke:none"
               id="path3578" />
            <path
               d="m 3103.7,654.105 166.34,0 0,-86.335 -166.34,0 0,-312.739 c 0,-104.179 31.7,-148.64 87.65,-148.64 36.92,0 58.42,9.968 81.33,21.519 l 29.3,-83.8983 C 3252.29,17.3398 3191.35,3.37109 3135.4,3.37109 c -139.83,0 -200.88,73.73831 -200.88,203.28891 l 0,361.11 -88.87,0 0,86.335 88.87,0 0,160.946 169.18,29.672 0,-190.618"
               style="fill:#0e0e0d;fill-opacity:1;fill-rule:nonzero;stroke:none"
               id="path3580" />
            <path
               d="m 3739.18,412.582 c 6.39,96.582 -27.96,162.715 -111.83,162.715 -96.58,0 -139.86,-77.488 -138.69,-162.715 l 250.52,0 z m -252.87,-91.551 c -3.84,-119.402 79.96,-208.449 185.51,-208.449 62.35,0 128.32,21.719 170.33,50.777 l 48.28,-88.8278 C 3803.99,23.7305 3713.74,3.37109 3641.35,3.37109 c -191.95,0 -335.66,135.90991 -335.66,345.73391 0,195.723 142.3,320.235 324.1,320.235 198.38,0 281.05,-158.77 268.2,-348.309 l -411.68,0"
               style="fill:#0e0e0d;fill-opacity:1;fill-rule:nonzero;stroke:none"
               id="path3582" />
            <path
               d="m 4475.08,52.8906 c -53.26,-31.789 -123.3,-49.51951 -180.49,-49.51951 -264.35,0 -350.74,200.78891 -350.74,330.40191 0,177.95 134.61,335.567 359.71,335.567 50.84,0 113.14,-12.742 165.18,-43.211 l -40.67,-97.832 c -17.73,7.488 -36.8,13.926 -55.92,19.023 -18.96,5.086 -38.02,7.625 -57.22,7.625 -95.37,0 -191.86,-64.746 -191.86,-212.175 0,-127.149 72.4,-225.02 193.07,-225.02 39.49,0 82.73,8.898 124.67,31.77 l 34.27,-96.6294"
               style="fill:#0e0e0d;fill-opacity:1;fill-rule:nonzero;stroke:none"
               id="path3584" />
            <path
               d="m 4697.62,579.078 c 57.19,61.035 137.25,90.262 217.25,90.262 148.81,0 227.58,-81.289 227.58,-241.512 l 0,-409.3085 -169.03,0 0,390.2855 c 0,89.004 -39.57,147.363 -127.24,147.363 -82.58,0 -147.33,-54.609 -147.33,-158.82 l 0,-378.8285 -169.02,0 0,905.5625 167.79,28.668 0,-373.672"
               style="fill:#0e0e0d;fill-opacity:1;fill-rule:nonzero;stroke:none"
               id="path3586" />
          </g>
        </g>
      </g>
    </g>
    <image
       y="707"
       x="10"
       id="image5018"
       height="31"
       width="88"
       xlink:href="file:///home/mahnve/src/bdd_presentation/inkscape_pasted_image_20100309_193353.png" />
    <text
       xml:space="preserve"
       style="font-size:14px;font-style:normal;font-variant:normal;font-weight:bold;font-stretch:normal;text-align:start;line-height:125%;writing-mode:lr-tb;text-anchor:start;fill:#000000;fill-opacity:1;stroke:none;font-family:DejaVu Sans Mono;-inkscape-font-specification:DejaVu Sans Mono"
       x="12.000002"
       y="758"
       id="text5004-9"
       sodipodi:linespacing="125%"><tspan
         sodipodi:role="line"
         id="tspan5006-3"
         x="12.000002"
         y="758"
         style="font-family:Mentone;-inkscape-font-specification:Mentone">Licensed under a Creative Commons Attribution-Share Alike Sweden License</tspan></text>
  </g>
</svg>
