<?xml version="1.0" encoding="UTF-8" standalone="no"?>
<!-- Created with Inkscape (http://www.inkscape.org/) -->

<svg
   xmlns:dc="http://purl.org/dc/elements/1.1/"
   xmlns:cc="http://creativecommons.org/ns#"
   xmlns:rdf="http://www.w3.org/1999/02/22-rdf-syntax-ns#"
   xmlns:svg="http://www.w3.org/2000/svg"
   xmlns="http://www.w3.org/2000/svg"
   xmlns:sodipodi="http://sodipodi.sourceforge.net/DTD/sodipodi-0.dtd"
   xmlns:inkscape="http://www.inkscape.org/namespaces/inkscape"
   width="1024px"
   height="768px"
   id="svg2816"
   version="1.1"
   inkscape:version="0.46+devel r22636 custom"
   sodipodi:docname="New document 32">
  <defs
     id="defs2818">
    <inkscape:perspective
       sodipodi:type="inkscape:persp3d"
       inkscape:vp_x="0 : 384 : 1"
       inkscape:vp_y="0 : 1000 : 0"
       inkscape:vp_z="1024 : 384 : 1"
       inkscape:persp3d-origin="512 : 256 : 1"
       id="perspective2824" />
    <clipPath
       id="clipPath3634"
       clipPathUnits="userSpaceOnUse">
      <path
         id="path3636"
         d="M 0,1292.29 0,0 l 5142.45,0 0,1292.29 -5142.45,0 z" />
    </clipPath>
    <inkscape:perspective
       id="perspective3624"
       inkscape:persp3d-origin="0.5 : 0.33333333 : 1"
       inkscape:vp_z="1 : 0.5 : 1"
       inkscape:vp_y="0 : 1000 : 0"
       inkscape:vp_x="0 : 0.5 : 1"
       sodipodi:type="inkscape:persp3d" />
  </defs>
  <sodipodi:namedview
     id="base"
     pagecolor="#ffffff"
     bordercolor="#666666"
     borderopacity="1.0"
     inkscape:pageopacity="0.0"
     inkscape:pageshadow="2"
     inkscape:zoom="1"
     inkscape:cx="408.57754"
     inkscape:cy="383.71048"
     inkscape:current-layer="layer1"
     inkscape:document-units="px"
     showgrid="true"
     inkscape:window-width="1596"
     inkscape:window-height="1196"
     inkscape:window-x="1440"
     inkscape:window-y="0"
     inkscape:window-maximized="0">
    <inkscape:grid
       type="xygrid"
       id="grid2826"
       empspacing="5"
       visible="true"
       enabled="true"
       snapvisiblegridlinesonly="true" />
  </sodipodi:namedview>
  <metadata
     id="metadata2821">
    <rdf:RDF>
      <cc:Work
         rdf:about="">
        <dc:format>image/svg+xml</dc:format>
        <dc:type
           rdf:resource="http://purl.org/dc/dcmitype/StillImage" />
        <dc:title></dc:title>
      </cc:Work>
    </rdf:RDF>
  </metadata>
  <g
     id="layer1"
     inkscape:label="Layer 1"
     inkscape:groupmode="layer">
    <text
       xml:space="preserve"
       style="font-size:40px;font-style:normal;font-weight:normal;fill:#000000;fill-opacity:1;stroke:none;font-family:Mentone;-inkscape-font-specification:Mentone"
       x="527.1803"
       y="631.74005"
       id="text3559"><tspan
         sodipodi:role="line"
         x="529.66077"
         y="631.74005"
         id="tspan3563"
         style="font-size:20px;text-align:center;text-anchor:middle">The Android Logo is created and shared by Google and used according </tspan><tspan
         sodipodi:role="line"
         x="527.1803"
         y="656.74005"
         id="tspan3565"
         style="font-size:20px"><tspan
   style="text-align:center;text-anchor:middle"
   id="tspan3593">terms described in Creative Commons 3.0 Attribution </tspan>License</tspan></text>
    <flowRoot
       xml:space="preserve"
       id="flowRoot3567"
       style="fill:black;stroke:none;stroke-opacity:1;stroke-width:1px;stroke-linejoin:miter;stroke-linecap:butt;fill-opacity:1;font-family:Mentone;font-style:normal;font-weight:normal;font-size:40px;-inkscape-font-specification:Mentone"><flowRegion
         id="flowRegion3569"><rect
           id="rect3571"
           width="21"
           height="46"
           x="769"
           y="604" /></flowRegion><flowPara
         id="flowPara3573"></flowPara></flowRoot>    <text
       xml:space="preserve"
       style="font-size:40px;font-style:normal;font-weight:normal;fill:#000000;fill-opacity:1;stroke:none;font-family:Mentone;-inkscape-font-specification:Mentone"
       x="362.6843"
       y="131.74004"
       id="text3581"><tspan
         sodipodi:role="line"
         id="tspan3583"
         x="362.6843"
         y="131.74004"
         style="font-size:64px">Thank You!</tspan></text>
    <text
       xml:space="preserve"
       style="font-size:40px;font-style:normal;font-weight:normal;fill:#000000;fill-opacity:1;stroke:none;font-family:Mentone;-inkscape-font-specification:Mentone"
       x="527.37781"
       y="281.74002"
       id="text3585"><tspan
         sodipodi:role="line"
         id="tspan3587"
         x="527.37781"
         y="281.74002"
         style="text-align:center;text-anchor:middle">marcus.ahnve@valtech.com</tspan><tspan
         sodipodi:role="line"
         x="527.37781"
         y="331.74002"
         id="tspan3589"
         style="text-align:center;text-anchor:middle">http://marcus.ahnve.net</tspan><tspan
         sodipodi:role="line"
         x="527.37781"
         y="381.74002"
         id="tspan3591"
         style="text-align:center;text-anchor:middle">twitter: @mahnve</tspan></text>
    <g
       transform="matrix(0.56062593,0,0,-0.56062593,383.15077,499.73787)"
       inkscape:label="ink_ext_XXXXXX"
       id="g3626">
      <g
         transform="scale(0.1,0.1)"
         id="g3628">
        <g
           id="g3630">
          <g
             clip-path="url(#clipPath3634)"
             id="g3632">
            <path
               id="path3638"
               style="fill:#f46e23;fill-opacity:1;fill-rule:nonzero;stroke:none"
               d="m 1277.57,736.91 c 29.27,144.414 7.96,282.41 -72.03,387.72 -183.18,241.45 -605.071,219.55 -942.185,-49.11 -46.132,-36.7 -87.968,-76.11 -125.812,-117.5 C 314.859,794.332 648.293,620.023 1277.57,736.91" />
            <path
               id="path3640"
               style="fill:#f46e23;fill-opacity:1;fill-rule:nonzero;stroke:none"
               d="M 935.496,216.609 C 1081.85,333.336 1187.93,477.379 1246.39,622.75 962.613,579.078 396.719,466.391 0,159.18 186.73,-73.1602 602.348,-48.75 935.496,216.609" />
            <path
               id="path3642"
               style="fill:#0e0e0d;fill-opacity:1;fill-rule:nonzero;stroke:none"
               d="m 1565.67,18.4688 -259.3,617.7972 169.05,30.613 c 54.61,-146.16 110.56,-293.641 164.06,-470.41 l 2.46,0 c 57.14,176.769 115.69,324.25 174.17,470.41 l 144.87,-26.668 -277.13,-621.7422 -118.18,0" />
            <path
               id="path3644"
               style="fill:#0e0e0d;fill-opacity:1;fill-rule:nonzero;stroke:none"
               d="m 2252.08,356.715 c -82.64,-25.43 -124.58,-73.766 -124.58,-146.305 0,-55.781 35.51,-94.051 76.21,-94.051 67.38,0 155.04,83.86 142.41,270.852 l -94.04,-30.496 z M 2305.32,79.6406 C 2258.41,42.7188 2201.23,3.37109 2142.73,3.37109 c -99.16,0 -181.75,76.26951 -181.75,193.09791 0,120.761 87.66,189.543 235.13,231.359 l 150.01,44.551 c -8.92,58.476 -61.04,95.391 -115.74,95.391 -72.4,0 -123.33,-26.719 -167.75,-64.895 l -54.65,80.098 c 78.83,64.797 156.34,86.367 244.1,86.367 116.86,0 260.53,-38.125 260.53,-236.328 l 0,-259.364 c 0,-50.949 6.38,-110.6988 26.72,-155.1792 l -179.22,0 c -12.68,21.7929 -16.48,58.6406 -16.48,92.9222 l -38.31,-31.7504" />
            <path
               id="path3646"
               style="fill:#0e0e0d;fill-opacity:1;fill-rule:nonzero;stroke:none"
               d="m 2619.38,18.4688 0,904.3902 169.08,29.891 0,-934.2812 -169.08,0" />
            <path
               id="path3648"
               style="fill:#0e0e0d;fill-opacity:1;fill-rule:nonzero;stroke:none"
               d="m 3103.7,654.105 166.34,0 0,-86.335 -166.34,0 0,-312.739 c 0,-104.179 31.7,-148.64 87.65,-148.64 36.92,0 58.42,9.968 81.33,21.519 l 29.3,-83.8983 C 3252.29,17.3398 3191.35,3.37109 3135.4,3.37109 c -139.83,0 -200.88,73.73831 -200.88,203.28891 l 0,361.11 -88.87,0 0,86.335 88.87,0 0,160.946 169.18,29.672 0,-190.618" />
            <path
               id="path3650"
               style="fill:#0e0e0d;fill-opacity:1;fill-rule:nonzero;stroke:none"
               d="m 3739.18,412.582 c 6.39,96.582 -27.96,162.715 -111.83,162.715 -96.58,0 -139.86,-77.488 -138.69,-162.715 l 250.52,0 z m -252.87,-91.551 c -3.84,-119.402 79.96,-208.449 185.51,-208.449 62.35,0 128.32,21.719 170.33,50.777 l 48.28,-88.8278 C 3803.99,23.7305 3713.74,3.37109 3641.35,3.37109 c -191.95,0 -335.66,135.90991 -335.66,345.73391 0,195.723 142.3,320.235 324.1,320.235 198.38,0 281.05,-158.77 268.2,-348.309 l -411.68,0" />
            <path
               id="path3652"
               style="fill:#0e0e0d;fill-opacity:1;fill-rule:nonzero;stroke:none"
               d="m 4475.08,52.8906 c -53.26,-31.789 -123.3,-49.51951 -180.49,-49.51951 -264.35,0 -350.74,200.78891 -350.74,330.40191 0,177.95 134.61,335.567 359.71,335.567 50.84,0 113.14,-12.742 165.18,-43.211 l -40.67,-97.832 c -17.73,7.488 -36.8,13.926 -55.92,19.023 -18.96,5.086 -38.02,7.625 -57.22,7.625 -95.37,0 -191.86,-64.746 -191.86,-212.175 0,-127.149 72.4,-225.02 193.07,-225.02 39.49,0 82.73,8.898 124.67,31.77 l 34.27,-96.6294" />
            <path
               id="path3654"
               style="fill:#0e0e0d;fill-opacity:1;fill-rule:nonzero;stroke:none"
               d="m 4697.62,579.078 c 57.19,61.035 137.25,90.262 217.25,90.262 148.81,0 227.58,-81.289 227.58,-241.512 l 0,-409.3085 -169.03,0 0,390.2855 c 0,89.004 -39.57,147.363 -127.24,147.363 -82.58,0 -147.33,-54.609 -147.33,-158.82 l 0,-378.8285 -169.02,0 0,905.5625 167.79,28.668 0,-373.672" />
          </g>
        </g>
      </g>
    </g>
  </g>
</svg>
